<svg width="168" height="49" viewBox="0 0 168 49" fill="none" xmlns="http://www.w3.org/2000/svg">
<g clip-path="url(#clip0_36_31)">
<g clip-path="url(#clip1_36_31)">
<path d="M38.0278 16.6296V19.9549L44.4895 26.1304L24.2345 45.4884L4.04153 26.1304L8.70144 21.6769V18.3516L0.5 26.1304L24.2345 48.8137L47.9689 26.1304L38.0278 16.6296Z" fill="#F35800"/>
<path d="M15.2253 10.0384L10.1926 11.7604V30.0495L15.2253 34.503V12.7699L17.897 15.0263V13.0668L15.2253 10.0384Z" fill="#F35800"/>
<path d="M17.1514 15.8576L15.8466 14.9075V14.4325L17.1514 15.3826V15.8576Z" fill="#F35800"/>
<path d="M17.1514 17.2234L15.8466 16.5108V15.9764L17.1514 16.7483V17.2234Z" fill="#F35800"/>
<path d="M17.1514 18.5891L15.8466 17.9359V17.4015L17.1514 18.1141V18.5891Z" fill="#F35800"/>
<path d="M34.9212 14.6107L33.6786 13.6606V14.4919L34.9212 15.442V14.6107Z" fill="white"/>
<path d="M33.6786 16.2733L34.9212 17.2234V16.3921L33.6786 15.442V16.2733Z" fill="white"/>
<path d="M36.723 15.9764L35.4804 15.0263V15.8576L36.723 16.8077V15.9764Z" fill="white"/>
<path d="M35.4804 17.4609L36.723 18.4704V17.639L35.4804 16.6296V17.4609Z" fill="white"/>
<path d="M25.7878 5.94116L24.483 4.9317V5.76302L25.7878 6.83187V5.94116Z" fill="white"/>
<path d="M24.483 8.1382L25.7878 9.14767V8.31634L24.483 7.2475V8.1382Z" fill="white"/>
<path d="M27.5896 7.18818L26.2848 6.17871V7.01003L27.5896 8.0195V7.18818Z" fill="white"/>
<path d="M26.2848 9.14767L27.5896 10.1571V9.32581L26.2848 8.31635V9.14767Z" fill="white"/>
<path d="M33.3058 22.0926L33.1194 12.1167L37.2201 15.5608V12.8886L33.1194 8.79141L27.6517 10.6916L27.8381 21.8551H25.9742L23.9859 23.3396V3.50657L28.2731 6.83186V4.10038L23.9859 0.775085L19.2639 2.43773V26.9618L16.033 29.3963H18.7047L25.4771 23.5771L32.4359 29.0401L32.933 34.503L38.2142 30.0495V28.565L41.2587 28.2087L33.3058 22.0926Z" fill="white"/>
<path d="M27.3411 29.7526H23.7374V32.3654H27.3411V29.7526Z" fill="white"/>
<path d="M61.7622 22.0926H59.0284V38.8378H54.3685V22.0332H51.6347V17.8172H61.7622V22.0926Z" fill="white"/>
<path d="M72.8218 26.9618H68.1619V23.3396C68.1619 22.2707 68.0997 21.6175 68.0376 21.38C67.9133 21.1425 67.7269 20.9644 67.3542 20.9644C66.9814 20.9644 66.7328 21.1425 66.6086 21.4394C66.4843 21.7363 66.4843 22.4489 66.4843 23.5177V33.2561C66.4843 34.2655 66.5464 34.9187 66.6086 35.275C66.7328 35.5719 66.9192 35.75 67.292 35.75C67.6648 35.75 67.8512 35.5719 67.9755 35.275C68.0997 34.9781 68.1619 34.2061 68.1619 33.0779V30.4058H72.8218V31.2371C72.8218 33.3748 72.6975 34.9187 72.449 35.8688C72.2005 36.7595 71.6413 37.5908 70.7093 38.244C69.8394 38.8972 68.7211 39.2535 67.4163 39.2535C66.0494 39.2535 64.931 38.9566 64.0612 38.3628C63.1913 37.769 62.57 36.997 62.3215 35.9876C62.0108 34.9781 61.8865 33.4342 61.8865 31.3559V25.2397C61.8865 23.7552 61.9487 22.627 62.0108 21.8551C62.0729 21.0831 62.3836 20.3706 62.8185 19.658C63.2534 18.9454 63.8748 18.411 64.6203 17.9954C65.3659 17.5797 66.2979 17.4016 67.292 17.4016C68.6589 17.4016 69.7773 17.6985 70.6472 18.3516C71.517 18.9454 72.1383 19.7174 72.3869 20.6675C72.6354 21.6175 72.8218 23.0427 72.8218 25.0022V26.9618Z" fill="white"/>
<path d="M73.2567 17.8766H76.7361C79.035 17.8766 80.6504 17.9953 81.4581 18.1735C82.2659 18.3516 82.9493 18.886 83.4464 19.7174C83.9434 20.5487 84.2541 21.8551 84.2541 23.6365C84.2541 25.2397 84.0677 26.368 83.6949 26.9024C83.3221 27.4368 82.5765 27.7931 81.5203 27.9118C82.5144 28.2087 83.1357 28.565 83.5085 28.9807C83.8192 29.4557 84.0677 29.812 84.1298 30.2277C84.192 30.5839 84.2541 31.6528 84.2541 33.3154V38.8378H79.6563V31.8309C79.6563 30.7027 79.5942 29.9901 79.4078 29.7526C79.2214 29.5151 78.8486 29.337 78.1651 29.337V38.7784H73.2567V17.8766ZM78.2273 21.4394V26.0711C78.7865 26.0711 79.1593 26.0117 79.4078 25.8335C79.6563 25.6554 79.7184 25.121 79.7184 24.1709V23.0427C79.7184 22.3895 79.5942 21.9144 79.4078 21.7363C79.1593 21.5582 78.7865 21.4394 78.2273 21.4394Z" fill="white"/>
<path d="M94.3816 17.8781C95.8728 17.8781 97.0533 17.9969 97.7989 18.2938C98.5445 18.5313 99.2279 19.1251 99.6629 19.897C100.16 20.7284 100.346 22.0347 100.346 23.8161C100.346 25.0631 100.16 25.8944 99.8493 26.3695C99.5386 26.8445 98.8551 27.2008 97.861 27.4977C98.9794 27.7946 99.725 28.2696 100.098 28.9228C100.471 29.576 100.657 30.5855 100.657 31.9512V33.9108C100.657 35.3359 100.533 36.3454 100.222 37.0579C99.9114 37.7111 99.4765 38.1861 98.8551 38.483C98.2338 38.7206 96.9912 38.8393 95.0651 38.8393H89.5353V17.8781H94.3816ZM94.3816 21.4409V26.0726C94.568 26.0726 94.7544 26.0726 94.8787 26.0726C95.3757 26.0726 95.6243 25.9538 95.7485 25.6569C95.8728 25.4194 95.9349 24.6475 95.9349 23.4005C95.9349 22.7473 95.8728 22.2722 95.7485 22.0347C95.6243 21.7972 95.5 21.6191 95.3136 21.5597C95.1893 21.5003 94.8787 21.4409 94.3816 21.4409ZM94.3816 29.3385V35.2171C95.0651 35.2171 95.5 35.0984 95.6864 34.8608C95.8728 34.6233 95.9349 34.0889 95.9349 33.2576V31.298C95.9349 30.4073 95.8728 29.8729 95.6864 29.6948C95.5 29.5166 95.0651 29.3979 94.3816 29.3385Z" fill="#F35800"/>
<path d="M111.592 21.6176V38.7784H107.057L107.119 37.3533C106.808 37.9471 106.435 38.3628 106 38.6597C105.565 38.9566 105.006 39.0753 104.447 39.0753C103.764 39.0753 103.204 38.9566 102.769 38.6597C102.335 38.3628 102.024 38.0065 101.775 37.5314C101.589 37.0564 101.465 36.5814 101.403 36.1063C101.34 35.6313 101.34 34.6218 101.34 33.1373V21.6176H105.814V33.3155C105.814 34.6812 105.876 35.4531 105.938 35.6907C106 35.9282 106.187 36.0469 106.497 36.0469C106.808 36.0469 106.994 35.9282 107.057 35.6313C107.119 35.3938 107.181 34.5624 107.181 33.1373V21.6176H111.592Z" fill="#F35800"/>
<path d="M116.873 17.8773V20.6088H112.276V17.8773H116.873ZM116.873 21.6183V38.7792H112.276V21.6183H116.873Z" fill="#F35800"/>
<path d="M122.341 17.8773V38.8385H117.743V17.8773H122.341Z" fill="#F35800"/>
<path d="M133.401 38.8378H128.927V37.5314C128.492 38.0659 128.057 38.4221 127.56 38.719C127.063 38.9566 126.628 39.1347 126.069 39.1347C125.386 39.1347 124.764 38.8972 124.267 38.4815C123.77 38.0659 123.459 37.5908 123.273 36.997C123.149 36.4626 123.087 35.5125 123.087 34.2655V26.1898C123.087 24.8834 123.149 23.9334 123.273 23.3989C123.397 22.8645 123.77 22.3895 124.267 21.9144C124.764 21.4988 125.386 21.2613 126.131 21.2613C126.69 21.2613 127.187 21.38 127.622 21.6175C128.057 21.8551 128.492 22.2113 128.865 22.6864V17.8172H133.401V38.8378ZM128.927 25.9523C128.927 25.2991 128.865 24.8834 128.803 24.7053C128.741 24.4678 128.554 24.4084 128.244 24.4084C127.995 24.4084 127.809 24.5272 127.684 24.7053C127.622 24.8834 127.56 25.3585 127.56 26.0117V34.4437C127.56 35.1562 127.622 35.5719 127.684 35.8094C127.747 36.0469 127.933 36.1657 128.182 36.1657C128.492 36.1657 128.679 36.0469 128.741 35.8094C128.865 35.5719 128.865 34.9781 128.865 34.028V25.9523H128.927Z" fill="#F35800"/>
<path d="M144.584 30.5245H138.806V34.2655C138.806 35.0374 138.868 35.5125 138.93 35.75C139.055 35.9875 139.179 36.1063 139.49 36.1063C139.8 36.1063 140.049 35.9281 140.173 35.6312C140.297 35.3343 140.359 34.7405 140.359 33.9092V31.6528H144.584V32.8998C144.584 33.9686 144.522 34.7999 144.398 35.3343C144.274 35.9281 144.025 36.5219 143.59 37.1751C143.155 37.8283 142.658 38.3034 141.975 38.6596C141.354 38.9565 140.546 39.1347 139.552 39.1347C138.62 39.1347 137.812 38.9565 137.066 38.6596C136.321 38.3627 135.762 37.8877 135.389 37.3533C135.016 36.8188 134.705 36.1657 134.581 35.5125C134.457 34.8593 134.333 33.8498 134.333 32.6029V27.6149C134.333 26.1304 134.519 24.9428 134.83 24.0521C135.202 23.1614 135.762 22.5082 136.507 22.0332C137.315 21.5581 138.185 21.3206 139.241 21.3206C140.484 21.3206 141.54 21.6175 142.348 22.1519C143.155 22.6864 143.715 23.4583 144.025 24.349C144.336 25.2397 144.522 26.5461 144.522 28.2087V30.5245H144.584ZM140.111 27.7337V26.4867C140.111 25.596 140.049 25.0022 139.987 24.7647C139.924 24.5271 139.738 24.349 139.49 24.349C139.179 24.349 138.992 24.4678 138.93 24.7053C138.868 24.9428 138.806 25.5366 138.806 26.4867V27.7337H140.111Z" fill="#F35800"/>
<path d="M162.478 27.6743V26.1898C162.478 25.4179 162.416 24.8834 162.354 24.7053C162.292 24.4678 162.043 24.4084 161.733 24.4084C161.484 24.4084 161.298 24.5272 161.112 24.7053C160.987 24.8834 160.925 25.1803 160.925 25.596C160.925 26.1304 160.987 26.4867 161.049 26.7242C161.112 26.9617 161.298 27.2586 161.671 27.5555C161.981 27.8524 162.665 28.2681 163.721 28.8619C165.088 29.5745 165.958 30.287 166.393 30.9402C166.828 31.5934 167.014 32.5435 167.014 33.7905C167.014 35.2156 166.828 36.225 166.517 36.9376C166.206 37.6502 165.647 38.1846 164.902 38.6003C164.156 38.9565 163.224 39.1941 162.168 39.1941C160.987 39.1941 159.931 39.0159 159.123 38.6003C158.253 38.1846 157.694 37.6502 157.384 36.9376C157.073 36.225 156.887 35.1562 156.887 33.7311V32.5435H161.049V33.9686C161.049 34.9187 161.112 35.5125 161.236 35.75C161.36 36.0469 161.546 36.1657 161.857 36.1657C162.168 36.1657 162.416 36.0469 162.541 35.8688C162.665 35.6906 162.727 35.275 162.727 34.6812C162.727 33.8498 162.665 33.3748 162.478 33.1373C162.292 32.9591 161.422 32.306 159.745 31.2965C158.378 30.4058 157.508 29.6339 157.259 28.9213C156.949 28.2087 156.824 27.3774 156.824 26.4273C156.824 25.0616 157.011 24.0521 157.321 23.3989C157.632 22.7457 158.191 22.2707 158.999 21.9144C159.745 21.5581 160.677 21.38 161.733 21.38C162.727 21.38 163.597 21.4988 164.342 21.7957C165.026 22.0926 165.585 22.4488 165.958 22.9239C166.331 23.3989 166.579 23.8146 166.641 24.2303C166.703 24.6459 166.766 25.2991 166.766 26.1304V27.6743H162.478Z" fill="#F35800"/>
<path d="M152.91 21.7363C152.91 21.7363 151.481 21.7363 149.99 22.3301V21.7363H145.516V38.7785H149.99V24.8835C150.114 24.5272 150.301 24.2897 150.673 24.2303C150.673 24.2303 151.419 24.0522 151.481 24.5866V28.9807H155.955V24.5866C156.017 24.5866 156.203 21.7363 152.91 21.7363Z" fill="#F35800"/>
</g>
</g>
<defs>
<clipPath id="clip0_36_31">
<rect width="167" height="49" fill="white" transform="translate(0.5)"/>
</clipPath>
<clipPath id="clip1_36_31">
<rect width="167" height="49" fill="white" transform="translate(0.5)"/>
</clipPath>
</defs>
</svg>
